<svg width="1147" height="1373" viewBox="0 0 1147 1373" fill="none" xmlns="http://www.w3.org/2000/svg">
<path d="M1057.78 0.226562C1057.78 557.227 252.858 489.727 300.359 954.227C421.852 1687.73 1233.78 1319.23 1121.78 883.227C1150.78 1204.23 572.78 1493.23 558.28 1111.23C576.28 888.227 1033.36 1009.73 1145.86 394.227C1057.78 595.227 923.359 751.727 545.28 865.727C1036.28 565.727 1189.78 260.227 1057.78 0.226562Z" fill="#FF810C"/>
<path d="M163.367 400.75C96.6704 421.999 24.8672 458.25 0.859375 500.758C51.375 500.758 270.375 479.227 251.867 625.227C156.087 1055.1 280.965 1094.93 356.875 1192.73C245.951 1009.6 204.859 769.227 432.859 625.227L338.367 471.227C405.967 464.027 429.529 406.581 432.859 378.758C273.367 418.227 304.859 355.671 163.367 400.75Z" fill="#FF810C"/>
<path d="M1057.78 0.226562C1057.78 557.227 252.858 489.727 300.359 954.227C421.852 1687.73 1233.78 1319.23 1121.78 883.227C1150.78 1204.23 572.78 1493.23 558.28 1111.23C576.28 888.227 1033.36 1009.73 1145.86 394.227C1057.78 595.227 923.359 751.727 545.28 865.727C1036.28 565.727 1189.78 260.227 1057.78 0.226562Z" stroke="black"/>
<path d="M163.367 400.75C96.6704 421.999 24.8672 458.25 0.859375 500.758C51.375 500.758 270.375 479.227 251.867 625.227C156.087 1055.1 280.965 1094.93 356.875 1192.73C245.951 1009.6 204.859 769.227 432.859 625.227L338.367 471.227C405.967 464.027 429.529 406.581 432.859 378.758C273.367 418.227 304.859 355.671 163.367 400.75Z" stroke="black"/>
</svg>
