<svg width="1661" height="388" viewBox="0 0 1661 388" fill="none" xmlns="http://www.w3.org/2000/svg">
<path d="M388.484 2.82857C388.484 1.26855 387.219 0.00391185 385.659 0.00391178L259.166 0.00390625L194.506 64.663L129.847 0.0039119H3.35396C1.79394 0.0039119 0.5293 1.26856 0.5293 2.82857V129.322L65.1884 193.981L0.529302 258.64L0.529297 385.134C0.529297 386.694 1.79394 387.958 3.35396 387.958H129.847L194.506 323.299L259.166 387.958H385.659C387.219 387.958 388.484 386.694 388.484 385.134V258.64L323.825 193.981L388.484 129.322V2.82857Z" fill="white"/>
<path d="M498.742 296.508L553.842 218.041L500.184 141.882H546.053L579.228 191.5L611.25 141.882H658.272L604.903 218.329L659.715 296.508H613.846L579.805 244.004L545.476 296.508H498.742ZM772.691 301.124C719.611 301.124 688.455 272.852 685.281 229.003L729.419 226.984C732.881 251.216 746.728 264.775 773.268 264.775C794.904 264.775 807.598 256.697 807.598 241.119C807.598 226.984 800.386 218.618 762.018 209.963C709.514 198.136 689.32 183.711 689.32 148.805C689.32 112.168 717.88 87.0701 766.056 87.0701C816.829 87.0701 844.235 115.918 848.562 156.306L804.713 158.614C802.405 137.266 788.846 123.419 765.479 123.419C745.574 123.419 733.458 132.939 733.458 147.363C733.458 162.652 742.978 168.999 776.153 175.922C832.984 187.462 851.735 207.944 851.735 239.1C851.735 277.468 821.156 301.124 772.691 301.124ZM943.243 296.508C911.221 296.508 896.797 282.372 896.797 250.062V174.192H871.988V141.882H896.797V105.533H940.069V141.882H980.745V174.192H940.069V244.87C940.069 259.871 946.416 264.198 959.109 264.198H980.745V296.508H943.243ZM1073.82 299.97C1026.51 299.97 995.354 268.237 995.354 219.195C995.354 170.441 1026.51 138.42 1073.82 138.42C1121.13 138.42 1152.29 170.441 1152.29 219.195C1152.29 268.237 1121.13 299.97 1073.82 299.97ZM1073.82 266.794C1095.46 266.794 1107.86 249.197 1107.86 219.195C1107.86 189.193 1095.46 171.595 1073.82 171.595C1052.19 171.595 1039.78 189.193 1039.78 219.195C1039.78 249.197 1052.19 266.794 1073.82 266.794ZM1249.33 299.97C1201.73 299.97 1170.87 267.948 1170.87 219.195C1170.87 170.441 1201.73 138.42 1249.33 138.42C1290.59 138.42 1320.3 160.921 1324.92 199.001L1280.2 201.02C1277.6 181.981 1265.78 171.884 1249.33 171.884C1227.7 171.884 1215.29 189.193 1215.29 219.195C1215.29 249.197 1227.7 266.794 1249.33 266.794C1266.07 266.794 1277.89 256.986 1280.2 235.927L1324.92 237.658C1320.59 275.737 1291.45 299.97 1249.33 299.97ZM1348.83 296.508V91.6858H1392.1V205.348L1449.51 141.882H1501.43L1441.43 205.636L1503.17 296.508H1455.85L1413.45 230.157L1392.1 252.947V296.508H1348.83ZM1580.82 299.97C1532.94 299.97 1508.7 278.045 1506.4 247.754L1550.24 246.312C1552.84 261.025 1562.07 269.391 1580.82 269.391C1596.4 269.391 1605.34 264.486 1605.34 254.101C1605.34 244.581 1600.44 239.965 1573.9 235.638C1524.86 227.561 1510.15 214.867 1510.15 188.039C1510.15 158.325 1533.22 138.42 1578.8 138.42C1622.36 138.42 1644.87 160.633 1648.91 191.5L1605.34 193.231C1603.32 178.23 1593.81 168.999 1578.52 168.999C1562.94 168.999 1554.57 175.922 1554.57 186.308C1554.57 197.559 1562.07 202.174 1583.42 205.348C1633.04 212.56 1650.06 226.407 1650.06 253.236C1650.06 283.238 1622.94 299.97 1580.82 299.97Z" fill="white"/>
</svg>
